<svg width="152" height="500" viewBox="0 0 152 500" fill="none" xmlns="http://www.w3.org/2000/svg">
<g style="mix-blend-mode:multiply" opacity="0.8">
<path d="M119.232 69.0265C117.494 70.2684 115.52 71.1436 113.432 71.5985C111.414 72.1723 109.365 72.6363 107.282 73.2154C103.43 74.3108 99.3056 75.8 96.5893 78.8931C93.8731 81.9863 92.6451 85.8035 91.7243 89.6784C90.9378 93.7037 89.6471 97.6149 87.8827 101.32C86.5144 103.855 84.8093 106.194 82.8137 108.273C84.8559 99.6168 86.0993 90.7929 86.5284 81.9121C86.596 79.4226 86.5612 76.9446 86.424 74.4782C88.6466 68.9323 92.0317 63.9233 96.3521 59.7874C98.8086 57.3615 101.365 54.8677 102.691 51.6291C103.96 48.0385 104.363 44.2014 103.869 40.4285C103.628 35.983 102.361 31.6545 100.167 27.7804C99.7576 27.1319 98.5992 27.4745 98.8473 28.3007C99.2183 29.9619 99.2577 31.6803 98.9632 33.3577C98.7784 35.0467 98.4044 36.71 97.8482 38.3163C96.7595 41.461 95.257 44.4992 93.8559 47.5217C91.1555 53.274 87.9923 59.0261 86.2253 65.2251C86.0406 65.9237 85.8751 66.6433 85.7113 67.3228C84.9254 61.8607 83.4556 56.5195 81.3362 51.4244C73.9587 33.9402 56.3984 23.8348 47.8825 7.13576C46.8507 5.12341 46.0207 3.01403 45.4045 0.838335C45.3271 0.623327 45.1929 0.433252 45.0161 0.288196C44.8393 0.143141 44.6265 0.0484937 44.4 0.0142589C44.1736 -0.0199738 43.9421 0.00748293 43.7298 0.0937171C43.5176 0.179951 43.3326 0.32176 43.1944 0.504164C40.0875 5.10615 40.6321 10.6479 42.8003 15.5301C45.4501 21.5018 50.4537 25.802 54.0162 31.1713C55.9979 33.9982 57.1765 37.308 57.4274 40.7506C57.5898 43.4604 57.8161 46.5344 60.3382 48.1513C62.8602 49.7682 65.6384 48.9387 68.3025 49.2888C71.2383 49.7425 73.9489 51.126 76.0345 53.2352C80.9864 58.0512 82.7676 65.2456 83.6206 72.0578C83.6537 73.0111 83.7025 73.973 83.6989 74.9366C83.6965 75.2538 83.6785 75.5622 83.6761 75.8793C83.6738 76.1965 83.5107 76.5066 83.456 76.8254C83.4381 76.966 83.4489 77.1087 83.4877 77.245C83.5264 77.3812 83.5923 77.5083 83.6815 77.6184C83.5801 81.2604 83.2658 84.8969 82.8187 88.5317C82.2762 85.7088 81.1195 83.0399 79.43 80.7132C77.7406 78.3866 75.5596 76.4589 73.041 75.0661C71.1622 74.0839 69.0694 73.5581 67.1747 72.6595C65.2232 71.5753 63.5933 69.9965 62.4493 68.0824C59.9204 64.1965 57.0347 60.554 53.8297 57.2017C51.236 54.6198 48.5105 52.1729 45.6642 49.871C44.5086 48.4415 43.0552 47.28 41.4046 46.4669C41.149 46.314 40.8429 46.2688 40.5536 46.3411C40.2643 46.4135 40.0155 46.5976 39.8619 46.8528C39.7084 47.1081 39.6626 47.4136 39.7348 47.7022C39.8069 47.9908 39.991 48.2389 40.2466 48.3918L44.0529 51.4105C45.7723 53.6711 47.0191 56.2536 47.7194 59.0051C49.0793 63.7875 49.8586 68.946 52.7617 73.0655C53.8633 74.823 55.3271 76.326 57.0561 77.475C58.9603 78.5392 61.1164 79.0737 63.2996 79.0228C65.4905 78.9368 67.6743 79.3134 69.7081 80.128C71.5966 81.0131 73.2959 82.2537 74.7128 83.7817C78.322 87.5949 79.8579 92.5778 81.4673 97.4476C80.8477 100.894 80.1531 104.309 79.4235 107.694C78.4632 112.174 77.4434 116.631 76.4149 121.103C76.2756 120.009 76.1084 118.909 75.8922 117.824C75.3818 115.331 74.8349 111.874 72.6046 110.213C71.5611 109.534 70.3947 109.064 69.1706 108.83C67.8853 108.5 66.6255 108.078 65.4011 107.567C63.0818 106.576 60.9225 105.248 58.9928 103.627C57.0534 102.002 55.3414 100.125 53.9027 98.0459C52.3825 95.538 51.013 92.942 49.8017 90.2716C47.2413 85.5616 43.2333 81.7974 38.3668 79.5321C35.6155 78.1782 32.4338 77.2632 30.4233 74.8415C28.4127 72.4199 27.7171 69.1364 27.019 66.1701C26.9624 65.9587 26.8454 65.7682 26.6822 65.6221C26.519 65.4759 26.3166 65.3803 26.0998 65.347C25.8829 65.3136 25.661 65.3439 25.4609 65.4341C25.2609 65.5244 25.0913 65.6707 24.973 65.8552C23.6212 68.0571 22.9073 70.5892 22.9107 73.1699C22.914 75.7506 23.6344 78.2788 24.9919 80.4737C26.4092 82.8046 28.5423 84.6165 31.0747 85.6406C34.069 86.8727 37.3706 87.1866 40.2404 88.6783C43.0788 90.1392 45.2424 92.6363 46.2813 95.6505C47.4012 98.9847 47.4202 102.724 49.4156 105.744C52.3198 110.192 57.7591 111.283 62.3852 113.001C65.2888 113.925 67.8397 115.711 69.6975 118.121C71.8607 121.08 72.7287 124.644 73.8449 128.058C73.9025 128.243 73.9984 128.413 74.1262 128.559C74.2541 128.704 74.4111 128.821 74.5872 128.902C73.7856 132.545 72.9963 136.185 72.2907 139.841C71.7406 142.555 71.283 145.27 70.8011 147.991C70.2084 142.885 68.865 137.742 64.8603 134.397C63.4219 133.198 61.8032 132.247 60.2668 131.167C58.7618 130.088 57.3558 128.877 56.0652 127.549C53.5827 124.999 51.3935 122.181 49.5381 119.146C47.9522 116.59 45.9064 113.44 42.5166 113.56C42.2894 113.58 42.0716 113.66 41.886 113.792C41.7004 113.925 41.5538 114.104 41.4616 114.313C41.3694 114.521 41.3351 114.75 41.362 114.976C41.389 115.202 41.4764 115.416 41.6151 115.597C43.6112 118.247 44.1703 121.701 44.7579 124.883C45.1737 128.162 46.1842 131.338 47.7399 134.255C49.4478 136.809 51.8548 138.82 54.6755 140.049C57.5209 141.456 60.6744 142.55 63.0469 144.711C66.0314 147.396 67.577 150.926 68.9669 154.605C69.0875 154.91 69.3046 155.168 69.5854 155.339C68.7348 160.856 67.9942 166.341 67.4439 171.89C66.5987 169.383 65.2496 167.074 63.479 165.106C61.7033 163.107 59.5106 161.521 57.0546 160.458C55.8707 159.951 54.6339 159.578 53.3669 159.344C51.8215 159.273 50.3143 158.844 48.9651 158.09C47.9547 157.201 47.2451 156.021 46.9337 154.712C46.5591 153.394 46.1111 152.098 45.5862 150.809C45.1415 149.634 44.4484 148.569 43.554 147.686C42.6595 146.802 41.5847 146.122 40.4026 145.69C38.3258 145.025 36.1675 144.645 33.9872 144.561C32.2889 142.617 30.4218 140.827 28.4076 139.211C26.3472 137.564 24.3811 135.803 22.5189 133.936C20.769 132.083 19.4419 129.874 18.6284 127.46C18.4029 126.667 16.9995 126.38 16.7826 127.431C16.2785 129.853 16.3394 132.358 16.9606 134.752C17.6847 137.128 18.9376 139.31 20.6259 141.133C22.3852 143.064 24.5585 144.574 26.9844 145.55C28.7242 146.182 30.5493 146.552 32.3993 146.647C33.0265 147.426 33.5786 148.263 34.0482 149.145C36.712 154.19 34.6259 161.033 39.2684 165.133C43.1176 168.535 48.7031 168.094 53.4124 169.221C58.9622 170.568 63.7543 174.042 66.7511 178.892C66.7892 179.026 66.8239 179.148 66.7765 179.306C66.7673 179.458 66.8101 179.609 66.8979 179.733C66.5097 185.435 66.3502 191.15 66.3636 196.87C65.0865 195.572 63.4259 194.718 61.6254 194.432C59.2359 193.793 56.822 193.161 54.4167 192.605C52.1641 191.97 49.9509 191.204 47.7888 190.31C45.701 189.611 43.8171 188.413 42.3017 186.819C40.871 185.275 39.5976 183.632 38.1495 182.027C36.7015 180.421 35.1313 178.757 33.5399 177.206C29.9611 173.74 26.1135 170.561 22.0328 167.7C21.1207 167.049 20.2838 168.197 20.6191 169.051C22.7008 174.42 24.9643 179.684 27.1997 185.035C29.0754 189.446 30.6096 194.377 33.6653 198.15C34.9266 199.767 36.6497 200.964 38.6077 201.584C40.6563 202.066 42.7987 201.981 44.804 201.338C48.9011 200.266 52.9969 198.073 57.2705 199.666C61.5441 201.26 63.9842 205.471 66.4638 209.17C66.5425 209.28 66.6371 209.378 66.7444 209.46C67.2197 218.175 68.2428 226.851 69.8078 235.437L69.7344 235.457C69.5821 235.621 69.4712 235.818 69.4109 236.033C69.3506 236.248 69.3427 236.474 69.388 236.692C69.4332 236.91 69.5302 237.114 69.6709 237.287C69.8115 237.46 69.9917 237.597 70.1964 237.686C70.1964 237.686 70.2241 237.784 70.2345 237.821C70.7516 240.43 71.3142 243.012 71.9047 245.6C69.6473 242.981 66.7494 240.989 63.4918 239.817C60.3159 238.597 57.0819 237.591 54.0446 236.068C51.3925 234.57 48.8675 232.858 46.4948 230.949C44.0956 229.126 41.4108 227.711 38.5485 226.76C35.6375 225.821 32.6979 225.246 30.6123 222.793C28.7811 220.676 27.8664 217.785 26.4356 215.357C24.9848 212.784 22.6666 210.808 19.8926 209.78C16.6834 208.583 13.2101 208.594 9.89527 207.862C8.26006 207.529 6.69511 206.917 5.26934 206.052C4.5702 205.618 3.94075 205.082 3.40215 204.46C3.26279 204.307 3.14342 204.138 3.04689 203.955C2.88384 203.381 2.65616 202.813 2.46519 202.234C2.03504 200.722 -0.438866 201.32 0.068144 202.824C1.85904 208.657 4.2584 215.003 10.0293 218.004C11.5993 218.876 13.3487 219.078 14.9451 219.811C16.4903 220.67 17.723 221.995 18.4671 223.596C20.3443 227.275 22.0075 231.06 23.4483 234.931C26.0629 241.058 30.4382 247.844 37.5168 249.168C41.0711 249.684 44.6994 249.318 48.0805 248.102C49.8539 247.598 51.5562 246.89 53.2688 246.218C54.6636 245.555 56.1834 245.195 57.7274 245.161C59.7267 245.265 60.1848 246.784 61.1529 248.236C61.6525 249.018 62.3449 249.659 63.164 250.098C63.9831 250.537 64.9015 250.759 65.8316 250.743C67.6232 250.813 69.2597 250.665 70.875 251.603C72.379 252.474 73.512 253.863 74.0614 255.51C74.1311 255.715 74.2431 255.904 74.3904 256.063C75.7924 261.598 77.3535 267.088 78.7747 272.644C114.778 412.469 140.017 485.098 146.079 495.4L148.555 499.456C149.625 498.572 150.699 497.699 151.776 496.839C139.782 465.49 126.697 442.205 83.8797 280.463C81.6329 272.003 78.9423 263.656 76.6954 255.196C76.6793 255.087 76.649 254.98 76.6052 254.879C76.5369 254.569 76.45 254.264 76.3451 253.964C75.6517 251.278 74.9817 248.58 74.335 245.872C73.611 242.768 72.9796 239.664 72.3833 236.498C76.38 232.236 80.3387 227.84 82.8182 222.52C84.1211 219.71 84.7856 216.514 86.4497 213.905C87.8823 211.922 89.8194 210.356 92.0605 209.369C96.6089 207.047 101.861 205.62 105.579 201.912C109.955 197.543 109.89 191.456 110.507 185.676C111.27 178.571 113.733 171.752 117.689 165.792C117.856 165.494 117.923 165.151 117.88 164.813C117.837 164.474 117.687 164.159 117.451 163.912C117.216 163.665 116.907 163.5 116.571 163.441C116.234 163.382 115.887 163.432 115.581 163.583C110.231 166.44 105.765 170.701 102.666 175.906C99.3476 181.438 97.5211 187.707 94.4001 193.328C93.0535 195.848 91.2283 198.082 89.0263 199.907C87.8767 200.809 86.5853 201.515 85.2049 201.995C83.6486 202.37 82.1949 203.086 80.9486 204.089C77.1048 207.819 77.193 212.779 76.7783 217.736C76.3103 223.102 74.6929 228.306 72.0356 232.997L71.8203 233.216C70.633 226.166 69.8509 219.054 69.4778 211.913C69.2933 208.01 69.2555 204.065 69.2789 200.102C71.3258 197.567 73.7543 195.364 76.4775 193.572C80.3633 190.687 84.4014 187.64 86.1009 182.924C88.1848 177.188 85.9865 170.759 88.5138 165.095C89.7348 162.431 91.7643 160.216 94.315 158.764C97.266 157.055 100.699 156.949 103.835 155.701C110.048 153.144 112.372 146.114 113.878 140.16C113.935 139.927 113.915 139.681 113.822 139.46C113.73 139.238 113.568 139.052 113.362 138.928C113.156 138.804 112.916 138.75 112.676 138.772C112.436 138.794 112.209 138.892 112.029 139.051C109.57 141.237 106.78 143.023 103.764 144.342C100.918 145.728 97.9025 146.736 94.7946 147.34C91.8247 147.961 88.6892 148.417 86.0649 150.02C83.8163 151.384 82.0801 153.449 81.1256 155.895C79.2479 160.635 79.868 165.931 78.528 170.796C77.1879 175.66 74.4493 180.395 71.9765 184.949C71.1003 186.516 70.2241 188.084 69.5103 189.711C69.6731 186.193 69.8946 182.679 70.175 179.171C71.0262 168.868 72.5179 158.725 74.3135 148.535C75.4827 146.872 76.8853 145.386 78.4782 144.121C82.6269 140.765 87.728 138.853 92.1292 135.874C94.162 134.603 95.8525 132.855 97.0531 130.782C98.1713 128.671 98.7888 126.333 100.067 124.321C102.555 120.33 106.516 118.175 110.888 116.813C115.26 115.451 119.965 114.1 121.87 109.642C122.205 108.822 121.259 108.142 120.544 108.279C114.921 109.377 109.152 109.5 103.51 110.485C99.0589 111.289 94.294 112.71 91.7121 116.741C89.1303 120.771 90.136 125.378 88.148 129.358C86.16 133.339 81.3503 135.392 77.9831 138.288C77.2067 138.96 76.476 139.683 75.7961 140.453C77.5104 131.697 79.4412 122.959 81.4244 114.22L81.8717 112.26C84.7368 109.876 88.5453 109.043 91.8716 107.399C95.5542 105.58 98.3906 102.411 99.7872 98.5548C101.363 94.797 101.942 90.7424 103.808 87.1259C104.695 85.4495 105.964 84.0044 107.513 82.9077C109.475 81.5322 111.949 81.3037 114.072 80.2647C116.051 79.2845 117.75 77.8208 119.01 76.0098C120.271 74.1989 121.051 72.0996 121.28 69.9078C121.307 68.7925 119.935 68.431 119.232 69.0265Z" fill="#333333"/>
</g>
</svg>
