<svg width="225" height="151" viewBox="0 0 225 151" fill="none" xmlns="http://www.w3.org/2000/svg">
<g style="mix-blend-mode:multiply" opacity="0.8">
<path d="M184.522 150.591H176.157C174.9 137.711 173.127 124.937 170.641 112.147C169.626 106.889 168.475 101.646 167.096 96.4638C166.414 93.8574 165.656 91.2813 164.838 88.7053C164.368 87.1899 163.883 85.7807 163.322 84.3411C163.141 83.8259 162.216 81.4923 162.125 81.2195C160.213 76.8838 157.974 72.6996 155.428 68.7029C154.852 67.824 154.23 66.9754 153.639 66.1117L153.352 65.8541C151.245 63.9296 149.003 61.6718 147.093 59.5351L146.881 59.2927C145.82 58.6562 144.835 57.9137 143.85 57.2773C142.426 56.4287 140.956 55.762 139.547 54.9134C139.259 54.7467 137.213 53.792 137.319 53.792C131.917 51.7937 126.335 50.3171 120.651 49.3824C109.473 47.3175 97.9607 47.9934 87.1012 51.3524L85.298 51.9585C84.9192 52.1403 83.5554 52.7464 83.222 52.9434C80.8732 54.3072 78.4942 55.5953 76.1757 57.0197L75.6302 57.3379C74.7968 58.0501 73.9633 58.8533 73.1602 59.52C72.3571 60.1868 67.9929 65.5813 69.0082 63.8538C66.1334 68.1282 63.8737 72.7854 62.2953 77.6888C60.189 84.2502 58.5827 90.9783 57.0825 97.7063C53.5063 113.617 50.8394 129.756 48.7937 145.939L48.2633 150.364L0 150.273C0.545519 145.697 1.11124 141.121 1.69716 136.544C3.84894 119.876 6.40985 103.207 10.0315 86.8566C13.5471 70.9759 17.6081 54.0648 26.7001 40.351C35.6686 26.5362 48.4702 15.6357 63.5378 8.98369C95.0264 -4.44215 132.682 -2.548 163.277 12.8478C190.901 26.7585 206.131 55.4286 213.768 84.2047C219.338 105.943 223.004 128.126 224.724 150.5C211.338 150.541 197.938 150.571 184.522 150.591Z" fill="#8AA3A0"/>
</g>
</svg>
