<svg width="120" height="325" viewBox="0 0 120 325" fill="none" xmlns="http://www.w3.org/2000/svg">
<path d="M64.1459 146.347C69.0283 130.653 83.3012 120.351 89.5507 105.288C97.3625 86.498 93.8798 65.3443 91.2758 45.8549C90.4621 39.6968 89.6483 33.5221 89.2089 27.3308C88.9485 24.0021 88.8834 20.6735 88.9159 17.3448C89.7444 12.2792 91.3135 7.36993 93.5705 2.78186C93.7552 2.42344 93.8229 2.014 93.7636 1.61343C93.7043 1.21285 93.5212 0.842194 93.2411 0.555719C92.9609 0.269244 92.5985 0.0819926 92.2068 0.021367C91.8151 -0.0392585 91.4147 0.0299207 91.0642 0.218794C83.1059 4.26313 77.1819 11.2034 72.6087 18.8427C67.8735 27.2706 63.787 36.0626 60.3864 45.1392C56.3503 55.1252 52.6071 65.3443 51.4842 76.1791C50.9271 81.6602 51.1133 87.1938 52.0375 92.6227C52.9814 98.3148 54.3648 103.907 55.4715 109.566C58.0068 121.737 59.6765 134.08 60.4678 146.497C59.5569 167.908 60.6468 189.359 63.7227 210.558C66.88 232.743 71.4857 254.679 74.6593 276.848C77.8003 298.717 79.5417 321.086 76.6448 343.105C76.2868 345.868 75.945 348.631 75.5219 351.427C75.0987 354.223 78.9559 355.005 79.3302 352.442C82.5851 330.723 80.9576 308.504 78.4676 286.784C75.8636 264.665 71.7787 242.762 68.5238 220.71C64.9766 198.438 63.4295 175.881 63.9018 153.321C63.918 151.008 64.0319 148.678 64.1459 146.347ZM63.4298 85.0833C64.3574 67.4413 67.3357 50.1322 74.5128 33.9216C77.3772 27.4473 80.6972 21.2061 84.1312 15.0314C78.8745 35.0034 73.7642 55.0919 69.663 75.3636C66.8963 89.061 64.6015 102.892 62.9578 116.789C62.8276 106.204 62.8764 95.6352 63.4298 85.0833ZM65.9198 126.692L65.6757 127.324C67.1079 113.111 69.2073 98.9472 71.795 84.9002C75.8311 63.0197 80.4314 41.2447 85.5959 19.575C85.5959 20.557 85.5145 21.5389 85.5145 22.5209C83.8871 29.5277 82.5363 36.5512 81.4622 43.6413C80.2416 51.7133 79.2651 59.8186 78.2072 67.924C76.5254 83.6517 73.6966 99.2289 69.7444 114.525C68.6377 118.609 67.3628 122.658 65.9198 126.675V126.692ZM70.0211 124.595C70.6558 122.681 71.2579 120.75 71.8112 118.819C73.9377 111.298 75.6063 103.65 76.8076 95.9181C79.4115 79.8739 80.9251 63.6799 83.0245 47.6524C83.4477 44.3237 83.9196 40.995 84.4079 37.6664C84.2289 46.8202 84.7659 55.9741 84.9775 65.0613C85.3518 81.7047 84.1637 99.0637 76.4332 114.026C74.5454 117.604 72.2019 121.05 70.0211 124.578V124.595ZM91.5362 72.4676C92.1882 82.2438 90.904 92.054 87.7605 101.311C85.4015 107.202 82.1862 112.695 78.2235 117.604V117.488C82.1623 110.277 84.7405 102.373 85.8238 94.1872C88.3463 76.8781 86.5073 59.3526 86.3771 41.9437C86.3771 39.1975 86.3771 36.4514 86.491 33.7052C86.784 36.1851 87.0932 38.6982 87.4512 41.0782C89.0462 51.4637 91.0805 61.8658 91.5362 72.451V72.4676ZM59.3937 114.708C58.5149 109.116 57.4732 103.557 56.3503 98.0651C55.1269 92.7404 54.499 87.2908 54.4787 81.8212C54.8964 71.1996 57.1443 60.7369 61.1188 50.9145C63.0067 45.9215 65.1875 41.0782 67.4171 36.2517C69.2887 32.224 71.2254 28.2129 73.4062 24.3517C75.5533 20.4607 78.0661 16.7929 80.9088 13.4003C78.0607 18.6763 75.3103 24.0188 72.8691 29.5278C69.24 37.6409 66.4684 46.1272 64.6016 54.8423C60.9072 72.3012 60.3538 90.2094 60.4189 108.101C60.4189 113.094 60.5003 118.087 60.5654 123.08C60.2074 120.151 59.8331 117.421 59.3937 114.692V114.708Z" fill="#8AA3A0"/>
<path d="M102.993 104.206C102.863 102.908 100.927 102.425 100.634 103.89C100.26 106.135 99.7656 108.357 99.1526 110.547C98.4691 112.727 97.8181 114.941 97.0044 117.071C95.3769 121.365 93.4565 125.609 91.4222 129.737C89.3878 133.864 87.5162 137.975 85.3354 142.003C83.1546 146.031 80.9413 149.875 79.0208 153.97C71.8535 169.382 67.6278 186.052 66.5707 203.084C66.3211 206.89 66.2398 210.701 66.3266 214.518C66.2126 215.151 66.0662 215.783 65.9685 216.416C65.9177 216.567 65.9177 216.731 65.9685 216.882C65.3593 218.641 64.9232 220.459 64.6666 222.307C64.57 222.748 64.6406 223.209 64.8642 223.599C65.0878 223.988 65.4476 224.276 65.8709 224.404C66.1989 224.469 66.5384 224.435 66.8474 224.304C67.1403 226.834 67.5146 229.297 68.0191 231.844C68.2958 233.242 70.2325 232.643 70.0698 231.295C69.549 227.234 69.1258 223.139 68.8492 219.028C68.9468 218.712 69.0607 218.429 69.1584 218.113C69.3495 217.961 69.5052 217.768 69.6141 217.547L73.4712 209.708C75.0384 207.416 76.7509 205.231 78.5977 203.167C84.0172 197.076 89.99 191.517 94.0261 184.227C97.7065 177.176 100.131 169.512 101.187 161.592C102.499 152.956 103.309 144.247 103.612 135.512C104.107 125.075 103.901 114.615 102.993 104.206ZM71.4368 206.712C70.4234 208.125 69.4836 209.592 68.6213 211.106V211.023C71.8231 198.723 75.9586 186.698 80.9901 175.057C86.4746 161.626 92.5614 148.427 96.6951 134.397C97.5414 131.518 98.3226 128.622 98.9736 125.693C98.0685 135.053 96.5955 144.347 94.5632 153.52C93.0573 160.548 90.8148 167.389 87.8743 173.925C84.8309 180.582 81.3644 187.073 78.1095 193.614C75.7985 197.975 73.6176 202.352 71.4368 206.712ZM72.1692 180.799C74.2228 172.609 77.131 164.669 80.8436 157.115C84.7658 149.126 89.6156 141.687 93.2286 133.548C95.1148 129.007 96.6493 124.321 97.8181 119.535C98.225 118.02 98.6807 116.522 99.1526 115.024C98.762 116.855 98.3226 118.686 97.8832 120.5C97.0532 123.978 96.0279 127.407 94.9537 130.819C92.7404 137.809 90.2015 144.699 87.5976 151.54C82.3897 165.137 76.4332 178.469 71.9413 192.349C70.7858 195.878 69.7605 199.456 68.8329 203.051C69.2428 195.541 70.36 188.089 72.1692 180.799ZM91.6988 180.799C88.7043 186.807 84.3101 191.7 79.8508 196.577C83.019 190.041 86.1329 183.473 89.1925 176.871C92.196 170.405 94.541 163.64 96.1906 156.682C97.8788 149.402 99.188 142.036 100.113 134.613C100.113 134.064 100.227 133.515 100.292 132.949C99.9175 141.271 99.2177 149.676 98.0622 157.914C97.1888 165.855 95.0503 173.597 91.7314 180.832L91.6988 180.799Z" fill="#8AA3A0"/>
<path d="M67.0427 224.97C67.3231 224.724 67.5187 224.392 67.6008 224.024C67.6828 223.655 67.6469 223.269 67.4984 222.923C63.6516 214.196 60.299 205.249 57.457 196.127C54.7879 186.757 53.4208 177.054 51.4353 167.517C49.855 158.885 47.2877 150.472 43.7862 142.453C41.9959 138.53 39.7502 134.841 37.0973 131.468C34.1649 127.931 30.9475 124.652 27.479 121.665C19.2114 114.225 10.8625 106.869 2.39965 99.6791C1.42317 98.8469 -0.383306 99.5792 0.0723852 101.044C3.32732 111.329 4.10851 122.148 5.4593 132.799C6.50061 143.038 9.00654 153.064 12.8969 162.558C16.8262 171.696 22.4024 179.995 29.3343 187.023C36.6091 194.33 44.8604 200.538 52.1189 207.828C59.3774 215.117 66.1965 224.271 67.7263 235.206C67.8402 236.071 69.3538 235.888 69.2073 235.006C68.9551 231.573 68.2262 228.194 67.0427 224.97ZM22.1897 121.532C28.8135 127.523 35.6814 133.332 40.0919 141.304C49.108 157.498 49.0429 176.721 53.4371 194.38C53.8765 196.044 54.3647 197.825 54.8855 199.523C53.8928 197.292 52.9651 195.046 52.0863 192.765C49.1731 185.076 46.8133 177.171 44.2907 169.348C41.8715 161.518 39.0244 153.834 35.7628 146.33C32.1302 138.399 27.6431 130.908 22.385 123.995C20.1391 120.999 17.763 118.12 15.3218 115.291C17.6328 117.438 19.895 119.535 22.1897 121.532ZM48.2292 190.935C44.2256 184.793 40.3685 178.569 36.8369 172.144C33.0611 165.332 29.7073 158.283 26.7954 151.04C23.7358 143.351 21.2783 135.429 18.2024 127.74C16.5749 123.729 14.8335 119.818 12.9131 115.99C20.5277 124.957 27.1232 134.778 32.573 145.265C39.8152 159.812 43.0538 175.789 48.278 191.001L48.2292 190.935ZM17.3073 165.337C12.6122 156.317 9.56249 146.498 8.30738 136.361C7.08677 127.707 6.53343 118.935 5.05244 110.314C10.9927 123.629 12.1645 138.741 16.2006 152.705C20.14 165.433 26.5128 177.234 34.949 187.423C27.9492 181.101 21.9921 173.666 17.3073 165.404V165.337ZM45.0556 194.763C39.6178 188.783 34.6033 182.414 30.0503 175.706C25.4867 168.953 21.774 161.639 18.9999 153.936C16.5235 146.037 14.502 137.995 12.9457 129.853C11.4124 122.115 8.95838 114.597 5.63833 107.468L7.50991 109.615C10.3367 115.137 12.8737 120.81 15.1102 126.608C18.0722 134.214 20.4157 142.053 23.2475 149.726C28.9404 164.378 36.217 178.335 44.9417 191.334C47.3504 195.062 49.8241 198.757 52.3304 202.402L52.5908 202.785C50.0519 200.155 47.5131 197.492 45.0556 194.763Z" fill="#8AA3A0"/>
<path d="M118.031 186.108C117.956 185.849 117.809 185.619 117.608 185.444C117.407 185.269 117.161 185.157 116.9 185.122C116.638 185.087 116.373 185.13 116.134 185.246C115.896 185.362 115.696 185.545 115.558 185.775C112.317 192.074 108.433 198.005 103.97 203.467C99.706 209.059 95.263 214.518 91.2106 220.293C87.0069 226.131 83.5758 232.51 81.0064 239.267C78.4895 246.348 76.8812 253.732 76.2216 261.236C75.4567 269.856 75.4567 278.53 76.2216 287.15C76.0914 287.499 75.9449 287.832 75.831 288.182C75.2451 290.046 78.1257 290.828 78.6954 288.964C80.925 281.724 86.0678 276.082 91.1455 270.789C96.4149 265.565 101.188 259.842 105.402 253.697C113.575 241.058 118.485 226.509 119.675 211.406C120.326 202.936 119.772 194.415 118.031 186.108ZM80.1601 276.731C80.1124 276.845 80.058 276.956 79.9973 277.064C82.106 266.515 85.1735 256.19 89.16 246.224C91.7701 239.862 94.7706 233.675 98.1436 227.7C101.399 221.908 104.979 216.299 108.218 210.49C108.82 209.425 109.357 208.36 109.845 207.278C109.682 208.027 109.503 208.776 109.341 209.508C107.765 215.829 105.551 221.964 102.733 227.816C97.0532 239.916 89.99 251.233 84.9937 263.683C83.3336 267.993 81.7224 272.354 80.1601 276.731ZM86.0841 266.429C88.6146 260.013 91.5446 253.77 94.8561 247.738C100.975 236.404 107.974 225.436 111.554 212.904C112.286 210.341 112.823 207.711 113.344 205.081C110.252 227.45 98.9085 248.121 86.556 266.662L85.3029 268.526C85.5633 267.843 85.8074 267.128 86.0841 266.429ZM82.9593 242.529C87.7604 229.048 96.9881 218.213 105.483 207.062C107.111 204.948 108.625 202.785 110.089 200.588C108.95 203.018 107.713 205.381 106.46 207.694C103.205 213.586 99.6246 219.228 96.4348 225.137C89.9457 237.206 84.8553 250.008 81.2667 263.283C79.7066 268.866 78.4784 274.541 77.5887 280.276C77.491 267.494 78.6628 254.579 82.9593 242.529ZM112.807 230.879C110.575 237.96 107.492 244.73 103.628 251.034C99.6513 257.264 95.0118 263.024 89.7947 268.21C88.3788 269.674 86.9629 271.155 85.5958 272.687C86.377 271.472 87.2233 270.273 87.972 269.092C91.8128 263.35 95.5071 257.441 98.9411 251.533C106.061 239.623 111.311 226.644 114.5 213.07C115.784 207.193 116.487 201.199 116.599 195.179C117.738 207.218 116.447 219.369 112.807 230.879Z" fill="#8AA3A0"/>
<path d="M78.4188 287.583C73.0319 273.652 67.2706 259.755 60.891 246.257C58.1244 239.905 54.3524 234.062 49.7265 228.965C45.0356 224.316 39.7529 220.336 34.0214 217.131C26.9419 212.937 19.6183 209.093 12.2296 205.481C12.0046 205.357 11.7492 205.302 11.4944 205.324C11.2397 205.346 10.9966 205.443 10.7948 205.604C10.5931 205.764 10.4413 205.981 10.3579 206.228C10.2746 206.475 10.2633 206.742 10.3255 206.996C14.5732 220.976 18.7395 235.439 26.6816 247.805C30.5009 253.774 35.2959 259.027 40.8568 263.333C46.4824 267.47 52.3227 271.292 58.3521 274.784C64.5202 278.612 70.8022 282.673 75.7009 288.099L75.8962 288.598C75.9704 288.789 76.0947 288.955 76.2556 289.079C76.4164 289.202 76.6074 289.278 76.8076 289.297C76.9529 289.394 77.1282 289.432 77.2996 289.405C77.4711 289.377 77.6263 289.285 77.7353 289.147C78.0179 289.019 78.2441 288.788 78.3703 288.499C78.4965 288.21 78.5138 287.884 78.4188 287.583ZM64.0157 269.658C59.9959 264.864 56.269 259.805 52.4119 254.878C44.5512 244.809 36.3162 235.073 28.2114 225.203C25.6725 222.108 23.0848 219.045 20.5134 215.95C22.9546 217.88 25.3959 219.811 27.8045 221.825C32.6869 225.902 37.4717 230.03 42.0286 234.474C44.2833 236.56 46.3679 238.831 48.2618 241.264C50.0005 243.786 51.6033 246.403 53.0628 249.103C56.3178 254.845 59.5727 260.637 62.8276 266.396L66.0826 272.005C65.3828 271.322 64.683 270.523 64.0157 269.658ZM25.3633 224.305C29.3994 229.214 33.3704 234.174 37.2275 239.284C44.8604 249.27 52.3956 259.422 60.1749 269.325C60.7933 270.107 61.4443 270.856 62.079 271.622C57.4082 267.511 52.6559 263.483 48.1641 259.206C43.3932 254.665 39.0354 249.69 35.1444 244.343C31.2926 238.917 27.7288 233.284 24.4682 227.467C22.2385 223.572 20.1391 219.578 18.1373 215.55C20.546 218.479 22.9547 221.392 25.3633 224.371V224.305ZM45.4625 229.913C50.1598 234.538 54.0608 239.94 57.0013 245.891C60.2563 252.216 63.1857 258.756 66.0501 265.281C67.4171 268.376 68.7354 271.472 70.0536 274.584C68.7354 272.188 67.4171 269.774 66.0663 267.394C62.8114 261.469 59.3448 255.594 55.9434 249.736C54.316 246.973 52.8187 244.127 51.061 241.414C49.3427 238.908 47.3915 236.579 45.2347 234.457C40.7103 229.913 35.9256 225.619 31.0432 221.492C28.2765 219.162 25.4284 216.948 22.6129 214.701L21.7829 214.036L29.6924 218.663C35.3411 221.829 40.63 225.624 45.4625 229.98V229.913ZM30.262 248.937C25.9817 243.115 22.5247 236.705 19.9926 229.897C17.9967 224.672 16.2852 219.338 14.8661 213.919C20.0342 224.05 25.914 233.784 32.4591 243.045C36.184 248.515 40.3079 253.689 44.7953 258.523C48.8152 262.767 53.0791 266.729 57.4244 270.623C53.4697 268.143 49.4824 265.73 45.6579 263.084C39.8383 259.241 34.6434 254.49 30.262 249.003V248.937Z" fill="#8AA3A0"/>
</svg>
