<svg width="414" height="341" viewBox="0 0 414 341" fill="none" xmlns="http://www.w3.org/2000/svg">
<g opacity="0.3">
<path d="M308.578 205.6C319.5 205.077 330.21 206.094 341.16 206.414C350.977 206.69 402.172 208.362 413.406 209.045L413.406 190.352C404.156 191.355 355.595 193.259 348.087 193.855C339.587 194.538 331.088 195.396 322.518 196.065C305.518 197.387 288.364 195.018 271.407 194.858C237.409 194.538 203.297 190.657 169.412 186.965C162.995 186.267 155.856 186.282 149.821 183.549C143.786 180.816 141.775 174.348 142.157 167.909C143.163 150.916 160.176 150.465 172.458 151.454C206.315 154.245 240.525 153.125 274.368 150.683C293.973 149.23 312.97 150.131 332.547 151.381C348.13 152.384 397.809 152.835 413.378 153.14L413.378 133.647C397.795 133.894 348.101 134.432 332.547 135.435C313.763 136.656 295.517 137.703 276.691 136.351C258.105 135.028 239.477 133.953 220.849 134.011C202.221 134.069 183.451 133.618 165.078 136.496C151.62 138.59 138.658 144.011 133.842 158.751C129.805 171.136 133.842 184.581 142.851 193.259C155.275 205.295 174.541 204.568 190.222 205.876C208.865 207.417 227.209 206.371 245.837 206.661C266.86 206.981 287.613 206.618 308.578 205.6Z" fill="#E6E1DB"/>
<path d="M317.503 229.904C330.635 229.904 343.752 229.904 356.87 230.239C364.335 230.399 405.969 230.82 413.406 231.096L413.406 217.331C397.823 217.534 347.903 218.406 332.264 218.377C311.241 218.377 290.21 218.329 269.169 218.232C247.92 218.232 226.671 217.316 205.422 216.778C186.397 216.313 165.106 217.549 147.129 209.932C132.921 203.885 119.888 192.736 115.837 176.427C112.083 161.28 117.069 143.401 130.13 135.232C137.752 130.464 146.818 129.635 155.473 129.112C165.29 128.516 175.121 128.051 184.952 127.658C206.371 126.685 227.776 125.609 249.195 124.751C292.514 123.051 370.072 122.862 413.406 123.632L413.406 107.279C371.928 107.163 296.268 107.802 254.748 108.733C231.374 109.227 208 109.939 184.641 111.291C164.809 112.439 143.885 112.12 125.781 121.844C110.539 130.028 102.096 147.035 101.529 164.812C100.963 182.59 108.782 199.379 121.22 211.022C135.698 224.599 153.802 229.919 172.855 230.515C195.52 231.14 218.186 230.311 240.851 229.992C266.421 229.555 291.962 229.803 317.503 229.904Z" fill="#E6E1DB"/>
<path d="M413.406 244.716C370.327 244.208 292.996 243.932 249.974 243.263C226.104 242.899 202.207 242.856 178.351 241.635C157.173 240.53 135.372 237.725 116.956 225.645C108.941 220.435 102.226 213.371 97.3505 205.019C91.6842 195.076 90.1117 183.665 89.106 172.269C88.1002 160.873 87.5194 148.736 91.9392 137.994C95.7073 128.734 103.116 121.35 111.162 116.19C130.555 103.863 155.077 101.218 177.161 99.0226C200.464 96.7114 223.795 96.8713 247.141 97.8452C273.73 98.9499 300.263 100.956 326.838 102.206C344.347 103.02 395.982 103.282 413.448 103.049L413.448 85.606C371.673 87.0596 295.758 87.2049 253.94 85.606C229.15 84.6466 204.161 84.0215 179.414 86.0566C156.153 87.9608 130.796 91.5221 109.845 103.064C90.7917 113.573 78.5665 131.685 76.6683 154.521C74.7701 177.357 78.5949 201.254 93.1433 218.872C123.557 255.677 177.7 254.121 219.758 254.877C272.923 255.822 360.284 256.985 413.448 257.959L413.406 244.716Z" fill="#E6E1DB"/>
<path d="M413.406 286.086L413.406 271.303C363.825 273.192 280.077 275.954 230.368 272.756C203.014 271.012 175.575 268.555 148.475 264.035C125.427 260.226 102.507 253.351 85.4795 235.515C54.0171 202.548 50.5322 148.881 78.4674 112.105C92.8316 93.2082 113.755 82.2482 135.542 76.2448C159.802 69.8404 184.906 67.4652 209.899 69.2094C240.865 71.1136 271.549 73.8173 302.6 74.1662C328.099 74.4569 387.865 74.326 413.406 74.0062L413.406 57.0719C360.001 57.9586 272.413 58.9906 219.021 60.0808C192.744 60.6187 166.14 58.1039 140.117 62.6101C116.276 66.7383 93.3699 76.4047 75.9742 94.7636C43.2084 129.403 37.0463 185.119 62.1058 226.459C74.6068 247.131 93.5908 262.823 115.936 270.954C141.902 280.431 170.971 282.045 198.098 283.862C230.68 286.042 263.375 286.129 295.956 285.926C323.764 285.824 385.683 286.202 413.406 286.086Z" fill="#E6E1DB"/>
<path d="M413.406 295.81C364.845 298.252 282.06 299.343 233.499 298.383C204.799 297.802 175.787 297.773 147.229 294.342C120.795 291.101 100.538 278.018 78.3399 262.029C57.3602 246.911 40.5594 223.174 36.4797 196.166C32.2299 168.359 33.2782 145.291 44.6109 120.318C50.4331 107.468 57.5869 94.6909 66.8088 84.2396C76.3 73.483 88.6385 67.1017 100.906 60.6477C114.845 53.3071 127.963 49.1353 143.546 48.2776C159.128 47.42 174.328 47.1002 189.741 46.6496C223.739 45.6466 257.737 44.3965 291.735 44.571C308.734 44.6436 325.733 44.571 342.633 45.2687C351.133 45.6321 359.632 46.1263 368.018 47.1875C371.758 47.6526 409.666 48.3212 413.349 49.0189L413.349 33.6545C403.433 33.3638 359.377 33.4073 349.518 32.855C332.958 31.9392 316.384 30.9944 299.795 31.0089C267.356 31.0089 234.916 32.0846 202.49 32.9567C185.817 33.3928 169.129 34.2214 152.456 34.265C136.873 34.265 122.212 35.6314 107.692 41.8964C94.574 47.5654 80.7764 54.3827 69.2879 63.1479C57.7993 71.9131 49.1015 83.6291 41.6644 96.2608C26.8327 121.452 24.0278 144.985 25.0478 174.915C25.9827 202.242 33.7881 231.605 50.3339 252.828C87.7744 300.971 145.897 309.518 199.898 311.291C259.692 313.297 353.612 314.3 413.349 311.829L413.406 295.81Z" fill="#E6E1DB"/>
<path d="M338.879 339.069C352.337 338.677 399.963 338.546 413.406 338.168L413.406 321.888C386.122 324.112 324.713 326.801 297.316 327.702C263.492 328.754 229.637 328.002 195.889 325.449C164.554 323.109 132.354 319.94 102.323 309.62C76.1158 300.622 57.601 286.202 41.0269 262.712C8.65783 216.851 0.200775 138.357 32.3007 88.5132C66.3697 35.6168 121.206 26.7499 176.793 21.5751C214.446 18.0574 252.222 16.3324 290.12 16.4003C319.869 16.4729 383.728 18.1737 413.363 20.0924L413.363 2.7801C386.066 0.614241 324.331 0.0618751 297.047 0.00374035C261.085 -0.0834773 225.155 1.37011 189.259 4.36452C129.62 9.4085 72.4044 17.1852 31.2949 68.657C-7.97296 117.832 -7.85962 193.143 18.1631 247.769C30.7283 274.137 44.9367 295.839 69.3162 310.637C96.6706 327.237 128.246 332.586 159.114 336.264C198.963 341.017 238.769 341.322 278.802 340.828C298.875 340.523 318.863 339.622 338.879 339.069Z" fill="#E6E1DB"/>
<path d="M333.666 177.938C348.809 177.735 398.248 178.447 413.406 177.837L413.406 162.719C398.277 164.609 348.979 166.615 333.666 167.007C315.505 167.472 297.387 167.458 279.212 166.906C242.523 165.786 205.465 168.548 168.959 163.446C158.972 161.992 157.017 176.964 167.174 177.575C204.006 179.799 241.177 179.872 278.079 178.781C296.608 178.229 315.123 178.185 333.666 177.938Z" fill="#E6E1DB"/>
</g>
</svg>
