<svg width="218" height="75" viewBox="0 0 218 75" fill="none" xmlns="http://www.w3.org/2000/svg">
<path d="M108.377 0.41186C144.617 1.09186 180.857 2.05187 217.097 2.73187L217.097 13.8119C187.887 12.6619 158.677 11.9119 129.457 11.2519C114.277 10.9119 99.0866 10.6519 83.8966 10.2519C69.2466 9.87186 54.5566 8.57186 39.8966 8.57186C27.3866 8.57186 13.8966 12.3019 10.4966 26.8219C7.64656 39.0219 14.5866 51.6619 24.7766 57.2319C37.7766 64.3319 54.6266 63.8519 68.7766 64.7319C84.3166 65.7319 99.8966 66.0919 115.457 66.2819C149.397 66.7119 183.247 65.6919 217.117 63.6419L217.117 74.5119C183.977 74.8719 150.82 74.5552 117.647 73.5619C100.757 73.0619 83.8766 72.4419 66.9866 71.9019C58.6366 71.6419 50.2866 71.5619 41.9366 71.3319C34.8766 71.1419 27.9366 70.3319 21.3866 67.3319C10.1766 62.0719 1.38658 50.5419 0.146578 37.4519C-1.09343 24.3619 5.63657 11.6319 16.4966 5.58187C28.7866 -1.26813 44.4166 0.431854 57.8366 0.161858C74.7166 -0.188139 91.5466 0.09186 108.377 0.41186Z" fill="#C9C1BE"/>
<path d="M177.117 18.1519C190.427 18.4219 203.787 19.1518 217.117 19.2518L217.117 28.3619C194.707 26.6619 171.967 26.8119 149.567 26.6419C123.477 26.4519 97.3966 26.5818 71.3266 25.7218C65.0566 25.5118 58.7666 25.5818 52.5066 25.7818C46.9766 25.9518 37.8866 24.9518 34.4066 30.3218C27.7266 40.5918 53.8566 43.7118 59.0266 44.4118C84.6443 48.056 110.465 50.0966 136.337 50.5219C163.397 50.8019 190.177 48.5919 217.137 47.1519L217.137 56.9118C190.287 57.5218 163.327 57.2319 136.477 57.0819C108.277 56.9219 80.0566 56.6019 52.0866 52.6119C42.2566 51.2119 29.0866 48.3218 25.0166 37.7918C20.3866 25.7118 33.1666 19.7018 43.0766 19.4518C71.6066 18.7318 100.077 17.0419 128.587 17.2719C144.777 17.4019 160.947 17.8219 177.117 18.1519Z" fill="#C9C1BE"/>
</svg>
