<svg width="288" height="34" viewBox="0 0 288 34" fill="none" xmlns="http://www.w3.org/2000/svg">
<path d="M29.3738 17.281C29.1379 19.4353 28.3711 21.3437 27.0734 23.0062C25.7994 24.6453 24.1243 25.9215 22.048 26.8347C19.9718 27.7479 17.6007 28.2045 14.9346 28.2045C11.9619 28.2045 9.35479 27.6309 7.11341 26.4835C4.87204 25.3361 3.12613 23.7438 1.87568 21.7066C0.625225 19.646 0 17.2576 0 14.5413C0 11.8251 0.625225 9.44835 1.87568 7.41116C3.12613 5.35055 4.87204 3.74656 7.11341 2.59917C9.35479 1.45179 11.9619 0.878098 14.9346 0.878098C17.6007 0.878098 19.9718 1.33471 22.048 2.24793C24.1243 3.16116 25.7994 4.43733 27.0734 6.07645C28.3711 7.71557 29.1379 9.62397 29.3738 11.8017H24.6669C24.4074 10.3967 23.8411 9.19077 22.9682 8.18388C22.1188 7.177 21.0099 6.40427 19.6415 5.8657C18.2731 5.30372 16.6923 5.02273 14.8992 5.02273C12.823 5.02273 11.0181 5.40909 9.48455 6.18182C7.97457 6.95455 6.8067 8.0551 5.98093 9.48347C5.15516 10.9118 4.74227 12.5978 4.74227 14.5413C4.74227 16.4848 5.15516 18.1708 5.98093 19.5992C6.8067 21.0275 7.97457 22.1281 9.48455 22.9008C11.0181 23.6736 12.823 24.0599 14.8992 24.0599C16.6923 24.0599 18.2731 23.7906 19.6415 23.2521C21.0099 22.7135 22.1188 21.9408 22.9682 20.9339C23.8411 19.9036 24.4074 18.686 24.6669 17.281H29.3738Z" fill="#E0E2E4"/>
<path d="M33.129 0.667355H37.7297V27.7128H33.129V0.667355Z" fill="#E0E2E4"/>
<path d="M61.2846 27.7128L60.506 20.3368L61.4262 17.7727L60.506 15.2438L61.2846 7.83264H66.0269L64.9652 17.7727L66.0269 27.7128H61.2846ZM62.7002 17.7727C62.2519 19.8568 61.5087 21.6832 60.4706 23.2521C59.4325 24.8209 58.1467 26.0386 56.6131 26.905C55.1031 27.7714 53.4162 28.2045 51.5523 28.2045C49.5941 28.2045 47.86 27.7714 46.35 26.905C44.84 26.0152 43.6603 24.7858 42.811 23.2169C41.9616 21.6481 41.5369 19.8333 41.5369 17.7727C41.5369 15.6887 41.9616 13.874 42.811 12.3285C43.6603 10.7596 44.84 9.54201 46.35 8.67562C47.86 7.78581 49.5941 7.34091 51.5523 7.34091C53.4162 7.34091 55.1031 7.7741 56.6131 8.64049C58.1467 9.50689 59.4325 10.7245 60.4706 12.2934C61.5323 13.8388 62.2755 15.6653 62.7002 17.7727ZM46.2084 17.7727C46.2084 19.1074 46.4797 20.2899 47.0224 21.3202C47.5886 22.3271 48.3554 23.1233 49.3228 23.7087C50.2901 24.2707 51.399 24.5517 52.6494 24.5517C53.9235 24.5517 55.1031 24.2707 56.1884 23.7087C57.2737 23.1233 58.2293 22.3271 59.055 21.3202C59.9044 20.2899 60.5768 19.1074 61.0723 17.7727C60.5768 16.438 59.9044 15.2672 59.055 14.2603C58.2293 13.23 57.2737 12.4339 56.1884 11.8719C55.1031 11.2865 53.9235 10.9938 52.6494 10.9938C51.399 10.9938 50.2901 11.2865 49.3228 11.8719C48.3554 12.4339 47.5886 13.23 47.0224 14.2603C46.4797 15.2672 46.2084 16.438 46.2084 17.7727Z" fill="#E0E2E4"/>
<path d="M75.2676 34C74.0879 34 73.0144 33.8478 72.0471 33.5434C71.1033 33.2624 70.2186 32.8643 69.3928 32.3492V28.8719C70.2894 29.4339 71.1387 29.8437 71.9409 30.1012C72.7667 30.3588 73.6868 30.4876 74.7013 30.4876C75.6687 30.4876 76.5298 30.2652 77.2848 29.8202C78.0398 29.3988 78.665 28.6494 79.1605 27.5723L88.185 7.83264H93.0688L82.6995 29.1178C82.1333 30.2886 81.4608 31.2252 80.6823 31.9277C79.9273 32.6536 79.0897 33.1804 78.1696 33.5083C77.273 33.8361 76.3057 34 75.2676 34ZM77.5679 27.0806L68.3665 7.83264H73.4273L82.1333 27.0806H77.5679Z" fill="#E0E2E4"/>
<path d="M104.544 27.7128V1.36983H109.215V23.8141L107.8 22.936L125.565 1.36983H130.626L108.72 27.7128H104.544ZM117.178 14.4711L120.469 11.2748L131.016 27.7128H125.672L117.178 14.4711Z" fill="#E0E2E4"/>
<path d="M133.459 7.69215L135.759 8.11364L138.059 7.69215V27.7128H133.459V7.69215ZM135.759 5.19835C134.886 5.19835 134.166 4.96419 133.6 4.49587C133.034 4.00413 132.751 3.3719 132.751 2.59917C132.751 1.82645 133.034 1.20592 133.6 0.737604C134.166 0.245868 134.886 0 135.759 0C136.656 0 137.375 0.245868 137.918 0.737604C138.484 1.20592 138.767 1.82645 138.767 2.59917C138.767 3.3719 138.484 4.00413 137.918 4.49587C137.375 4.96419 136.656 5.19835 135.759 5.19835Z" fill="#E0E2E4"/>
<path d="M141.973 7.83264H146.573L147.777 14.9979V27.7128H143.176V14.3306L141.973 7.83264ZM155.739 7.34091C157.627 7.34091 159.231 7.71557 160.552 8.46488C161.874 9.21419 162.876 10.2913 163.561 11.6963C164.268 13.0778 164.622 14.7521 164.622 16.719V27.7128H160.022V17.4566C160.022 15.3726 159.526 13.8037 158.535 12.75C157.568 11.6729 156.141 11.1343 154.253 11.1343C152.955 11.1343 151.811 11.427 150.82 12.0124C149.853 12.5744 149.098 13.3705 148.555 14.4008C148.036 15.4311 147.777 16.6371 147.777 18.0186L146.149 17.1405C146.361 15.0799 146.904 13.3237 147.777 11.8719C148.65 10.4201 149.77 9.30785 151.139 8.53512C152.507 7.73898 154.041 7.34091 155.739 7.34091Z" fill="#E0E2E4"/>
<path d="M187.419 22.8306V19.3182L187.596 18.686V14.8574L187.419 14.155V7.83264H192.02V22.4091C192.02 24.9614 191.477 27.0923 190.392 28.8017C189.307 30.5344 187.82 31.834 185.933 32.7004C184.046 33.5668 181.875 34 179.421 34C177.628 34 175.977 33.7658 174.467 33.2975C172.957 32.8292 171.494 32.115 170.078 31.155V27.3616C171.517 28.4855 173.004 29.27 174.537 29.7149C176.071 30.1832 177.605 30.4174 179.138 30.4174C181.828 30.4174 183.88 29.7617 185.296 28.4504C186.712 27.1391 187.419 25.2658 187.419 22.8306ZM177.793 26.1674C175.953 26.1674 174.301 25.781 172.839 25.0083C171.376 24.2121 170.22 23.1116 169.37 21.7066C168.521 20.3017 168.096 18.6508 168.096 16.7541C168.096 14.8574 168.521 13.2066 169.37 11.8017C170.22 10.3967 171.376 9.30785 172.839 8.53512C174.301 7.73898 175.953 7.34091 177.793 7.34091C179.162 7.34091 180.424 7.55165 181.58 7.97314C182.76 8.39463 183.81 8.95661 184.73 9.65909C185.673 10.3382 186.464 11.0992 187.101 11.9421C187.761 12.7617 188.269 13.6047 188.623 14.4711C188.977 15.314 189.154 16.0868 189.154 16.7893C189.154 17.7025 188.882 18.7094 188.34 19.8099C187.797 20.8871 187.018 21.9056 186.004 22.8657C185.013 23.8258 183.821 24.6219 182.429 25.2541C181.037 25.8629 179.492 26.1674 177.793 26.1674ZM179.209 22.7955C180.884 22.7955 182.418 22.3154 183.81 21.3554C185.225 20.3953 186.487 18.8616 187.596 16.7541C186.487 14.5999 185.225 13.0544 183.81 12.1178C182.418 11.1577 180.884 10.6777 179.209 10.6777C177.84 10.6777 176.673 10.9353 175.705 11.4504C174.738 11.9656 173.995 12.6798 173.476 13.593C172.98 14.5062 172.732 15.5599 172.732 16.7541C172.732 17.9249 172.98 18.9669 173.476 19.8802C173.995 20.7934 174.738 21.5076 175.705 22.0227C176.673 22.5379 177.84 22.7955 179.209 22.7955Z" fill="#E0E2E4"/>
<path d="M215.565 27.7128L214.786 20.1612L215.813 17.8079L214.822 15.1033L216.308 0.667355H221.05L219.246 17.4917L220.272 27.7128H215.565ZM216.91 17.7727C216.462 19.8568 215.718 21.6832 214.68 23.2521C213.642 24.8209 212.356 26.0386 210.823 26.905C209.313 27.7714 207.626 28.2045 205.762 28.2045C203.804 28.2045 202.07 27.7714 200.56 26.905C199.05 26.0152 197.87 24.7858 197.021 23.2169C196.171 21.6481 195.747 19.8333 195.747 17.7727C195.747 15.6887 196.171 13.874 197.021 12.3285C197.87 10.7596 199.05 9.54201 200.56 8.67562C202.07 7.78581 203.804 7.34091 205.762 7.34091C207.626 7.34091 209.313 7.7741 210.823 8.64049C212.356 9.50689 213.642 10.7245 214.68 12.2934C215.742 13.8388 216.485 15.6653 216.91 17.7727ZM200.418 17.7727C200.418 19.1074 200.689 20.2899 201.232 21.3202C201.798 22.3271 202.565 23.1233 203.532 23.7087C204.5 24.2707 205.609 24.5517 206.859 24.5517C208.133 24.5517 209.313 24.2707 210.398 23.7087C211.483 23.1233 212.439 22.3271 213.265 21.3202C214.114 20.2899 214.786 19.1074 215.282 17.7727C214.786 16.438 214.114 15.2672 213.265 14.2603C212.439 13.23 211.483 12.4339 210.398 11.8719C209.313 11.2865 208.133 10.9938 206.859 10.9938C205.609 10.9938 204.5 11.2865 203.532 11.8719C202.565 12.4339 201.798 13.23 201.232 14.2603C200.689 15.2672 200.418 16.438 200.418 17.7727Z" fill="#E0E2E4"/>
<path d="M235.776 28.2045C233.346 28.2045 231.211 27.7714 229.37 26.905C227.554 26.0152 226.126 24.7858 225.088 23.2169C224.073 21.6481 223.566 19.8333 223.566 17.7727C223.566 15.6887 224.073 13.874 225.088 12.3285C226.126 10.7596 227.554 9.54201 229.37 8.67562C231.211 7.78581 233.346 7.34091 235.776 7.34091C238.206 7.34091 240.329 7.78581 242.146 8.67562C243.986 9.54201 245.414 10.7596 246.428 12.3285C247.466 13.874 247.985 15.6887 247.985 17.7727C247.985 19.8333 247.466 21.6481 246.428 23.2169C245.414 24.7858 243.986 26.0152 242.146 26.905C240.329 27.7714 238.206 28.2045 235.776 28.2045ZM235.776 24.6219C237.333 24.6219 238.666 24.3409 239.775 23.7789C240.907 23.2169 241.78 22.4325 242.394 21.4256C243.007 20.3953 243.314 19.1777 243.314 17.7727C243.314 16.3678 243.007 15.1618 242.394 14.155C241.78 13.1247 240.907 12.3285 239.775 11.7665C238.666 11.2045 237.333 10.9236 235.776 10.9236C234.242 10.9236 232.909 11.2045 231.777 11.7665C230.644 12.3285 229.771 13.1247 229.158 14.155C228.544 15.1618 228.238 16.3678 228.238 17.7727C228.238 19.1777 228.544 20.3953 229.158 21.4256C229.771 22.4325 230.644 23.2169 231.777 23.7789C232.909 24.3409 234.242 24.6219 235.776 24.6219Z" fill="#E0E2E4"/>
<path d="M250.77 7.83264H255.37L256.574 14.9979V27.7128H251.973V14.3306L250.77 7.83264ZM263.97 7.34091C265.74 7.34091 267.238 7.71557 268.465 8.46488C269.715 9.21419 270.659 10.2913 271.296 11.6963C271.956 13.0778 272.287 14.7521 272.287 16.719V27.7128H267.686V17.4566C267.686 15.3726 267.238 13.8037 266.341 12.75C265.468 11.6729 264.182 11.1343 262.484 11.1343C261.28 11.1343 260.231 11.427 259.334 12.0124C258.461 12.5744 257.777 13.3705 257.281 14.4008C256.81 15.4311 256.574 16.6371 256.574 18.0186L254.946 17.1405C255.158 15.0799 255.665 13.3237 256.467 11.8719C257.293 10.4201 258.343 9.30785 259.617 8.53512C260.915 7.73898 262.366 7.34091 263.97 7.34091ZM279.648 7.34091C281.417 7.34091 282.927 7.71557 284.178 8.46488C285.428 9.21419 286.372 10.2913 287.009 11.6963C287.67 13.0778 288 14.7521 288 16.719V27.7128H283.399V17.4566C283.399 15.3726 282.951 13.8037 282.054 12.75C281.182 11.6729 279.896 11.1343 278.197 11.1343C276.994 11.1343 275.944 11.427 275.047 12.0124C274.174 12.5744 273.49 13.3705 272.995 14.4008C272.523 15.4311 272.287 16.6371 272.287 18.0186L270.659 17.1405C270.871 15.0799 271.378 13.3237 272.181 11.8719C273.006 10.4201 274.056 9.30785 275.33 8.53512C276.628 7.73898 278.067 7.34091 279.648 7.34091Z" fill="#E0E2E4"/>
</svg>
