<svg xmlns="http://www.w3.org/2000/svg" xmlns:xlink="http://www.w3.org/1999/xlink"><symbol fill="currentColor" id="sprite-arrow" viewBox="0 0 6 13"><path fill-rule="evenodd" clip-rule="evenodd" d="M.126.146a.387.387 0 0 1 .606 0l5.142 6a.56.56 0 0 1 0 .708l-5.142 6a.387.387 0 0 1-.606 0 .56.56 0 0 1 0-.708L4.966 6.5.125.854a.56.56 0 0 1 0-.708"/></symbol><use xlink:href="#sprite-arrow" width="6" height="13" y="0"/><view id="sprite-arrow-view" viewBox="0 0 6 13"/><symbol fill="currentColor" id="sprite-bag" viewBox="0 0 17 20"><path fill-rule="evenodd" clip-rule="evenodd" d="M8.5 1.226c-1.677 0-3.036 1.372-3.036 3.064v.613h6.072V4.29c0-1.692-1.36-3.064-3.036-3.064m4.25 3.677V4.29C12.75 1.92 10.847 0 8.5 0S4.25 1.92 4.25 4.29v.613H0v12.258c0 1.354 1.087 2.452 2.429 2.452H14.57c1.342 0 2.429-1.098 2.429-2.452V4.903zM1.214 6.13v11.032a1.22 1.22 0 0 0 1.215 1.226H14.57a1.22 1.22 0 0 0 1.215-1.226V6.13z"/></symbol><use xlink:href="#sprite-bag" width="17" height="20" y="13"/><view id="sprite-bag-view" viewBox="0 13 17 20"/><symbol fill="currentColor" id="sprite-s-facebook" viewBox="0 0 31 31"><path d="M31 15.5C31 6.94 24.06 0 15.5 0S0 6.94 0 15.5c0 7.736 5.668 14.149 13.078 15.312V19.98H9.143V15.5h3.935v-3.415c0-3.885 2.314-6.03 5.855-6.03 1.695 0 3.47.302 3.47.302v3.815h-1.955c-1.925 0-2.526 1.195-2.526 2.422V15.5h4.299l-.687 4.48h-3.612v10.832C25.332 29.649 31 23.236 31 15.5"/></symbol><use xlink:href="#sprite-s-facebook" width="31" height="31" y="33"/><view id="sprite-s-facebook-view" viewBox="0 33 31 31"/><symbol fill="currentColor" id="sprite-s-instagram" viewBox="0 0 32 31"><path d="M16 2.791c4.275 0 4.781.018 6.462.091 1.563.067 2.407.32 2.97.533a5 5 0 0 1 1.837 1.156c.562.545.906 1.06 1.194 1.78.218.545.48 1.369.55 2.876.074 1.635.093 2.125.093 6.26 0 4.142-.019 4.633-.094 6.261-.068 1.514-.33 2.331-.55 2.876a4.8 4.8 0 0 1-1.193 1.78 4.94 4.94 0 0 1-1.838 1.157c-.562.212-1.412.466-2.969.533-1.687.072-2.193.09-6.462.09-4.275 0-4.781-.018-6.462-.09-1.563-.067-2.407-.321-2.97-.533a5 5 0 0 1-1.837-1.157 4.76 4.76 0 0 1-1.193-1.78c-.22-.544-.482-1.368-.55-2.876-.075-1.634-.094-2.125-.094-6.26 0-4.141.018-4.632.093-6.26.07-1.514.332-2.332.55-2.877a4.8 4.8 0 0 1 1.194-1.78A4.94 4.94 0 0 1 6.57 3.415c.562-.212 1.412-.466 2.968-.533 1.682-.073 2.188-.09 6.463-.09M16 0c-4.344 0-4.887.018-6.594.09-1.7.073-2.869.34-3.881.721-1.056.4-1.95.927-2.838 1.793a7.6 7.6 0 0 0-1.85 2.742C.444 6.333.17 7.46.094 9.106.019 10.766 0 11.292 0 15.5s.019 4.735.094 6.388c.075 1.647.35 2.779.744 3.76a7.55 7.55 0 0 0 1.85 2.749 7.85 7.85 0 0 0 2.83 1.786c1.02.381 2.182.648 3.882.72 1.706.073 2.25.09 6.594.09 4.343 0 4.887-.017 6.593-.09 1.7-.072 2.87-.339 3.882-.72a7.85 7.85 0 0 0 2.831-1.787 7.6 7.6 0 0 0 1.844-2.742c.394-.987.669-2.113.744-3.76.074-1.653.093-2.18.093-6.388s-.019-4.735-.094-6.388c-.075-1.647-.35-2.779-.743-3.76a7.24 7.24 0 0 0-1.831-2.754A7.85 7.85 0 0 0 26.48.817C25.462.436 24.3.17 22.6.097 20.887.018 20.344 0 16 0"/><path d="M16 7.538c-4.537 0-8.219 3.566-8.219 7.962s3.682 7.962 8.219 7.962c4.538 0 8.219-3.566 8.219-7.962S20.538 7.538 16 7.538m0 13.127c-2.944 0-5.331-2.313-5.331-5.165s2.387-5.165 5.331-5.165 5.331 2.313 5.331 5.165-2.387 5.165-5.331 5.165"/><path d="M26.463 7.223c0 1.03-.863 1.859-1.92 1.859-1.062 0-1.918-.836-1.918-1.859 0-1.03.863-1.859 1.919-1.859s1.918.836 1.918 1.86"/></symbol><use xlink:href="#sprite-s-instagram" width="32" height="31" y="64"/><view id="sprite-s-instagram-view" viewBox="0 64 32 31"/><symbol fill="currentColor" id="sprite-s-tik-tok" viewBox="0 0 27 31"><path d="M19.469 0h-5.225v21.116c0 2.516-2.01 4.583-4.51 4.583s-4.51-2.067-4.51-4.583c0-2.471 1.965-4.493 4.376-4.583v-5.301c-5.313.09-9.6 4.448-9.6 9.884C0 26.597 4.376 31 9.779 31s9.779-4.448 9.779-9.884V10.288a12.1 12.1 0 0 0 6.921 2.337V7.323c-3.93-.135-7.01-3.37-7.01-7.323"/></symbol><use xlink:href="#sprite-s-tik-tok" width="27" height="31" y="95"/><view id="sprite-s-tik-tok-view" viewBox="0 95 27 31"/><symbol fill="currentColor" id="sprite-s-twitter" viewBox="0 0 31 26"><path d="M9.752 25.188c11.696 0 18.094-9.691 18.094-18.093 0-.273-.006-.551-.018-.824A12.9 12.9 0 0 0 31 2.98a12.6 12.6 0 0 1-3.65.999A6.4 6.4 0 0 0 30.146.46a12.8 12.8 0 0 1-4.037 1.544 6.368 6.368 0 0 0-10.842 5.799A18.06 18.06 0 0 1 2.16 1.163 6.367 6.367 0 0 0 4.129 9.65a6.4 6.4 0 0 1-2.882-.793v.078a6.36 6.36 0 0 0 5.103 6.237 6.3 6.3 0 0 1-2.87.108 6.37 6.37 0 0 0 5.94 4.42A12.76 12.76 0 0 1 0 22.333a18.04 18.04 0 0 0 9.752 2.856"/></symbol><use xlink:href="#sprite-s-twitter" width="31" height="26" y="126"/><view id="sprite-s-twitter-view" viewBox="0 126 31 26"/><symbol fill="currentColor" id="sprite-s-youtube" viewBox="0 0 31 22"><path d="M30.691 4.704s-.302-2.137-1.235-3.075C28.276.394 26.956.388 26.35.315 22.015 0 15.506 0 15.506 0h-.012S8.985 0 4.65.315c-.605.073-1.925.079-3.106 1.314-.932.938-1.23 3.075-1.23 3.075S0 7.217 0 9.724v2.349c0 2.507.309 5.02.309 5.02s.303 2.137 1.229 3.075c1.18 1.235 2.73 1.193 3.42 1.326 2.483.236 10.542.309 10.542.309s6.515-.012 10.85-.321c.605-.073 1.925-.079 3.106-1.314.933-.938 1.235-3.076 1.235-3.076S31 14.586 31 12.073v-2.35c0-2.506-.309-5.019-.309-5.019m-18.394 10.22V6.213l8.374 4.372z"/></symbol><use xlink:href="#sprite-s-youtube" width="31" height="22" y="152"/><view id="sprite-s-youtube-view" viewBox="0 152 31 22"/><symbol fill="currentColor" id="sprite-search" viewBox="0 0 19 19"><path fill-rule="evenodd" clip-rule="evenodd" d="M7.719 14.25a6.531 6.531 0 1 0 0-13.062 6.531 6.531 0 0 0 0 13.062m7.719-6.531A7.719 7.719 0 1 1 0 7.719a7.719 7.719 0 0 1 15.438 0"/><path d="M12.283 13.944q.053.071.117.136l4.573 4.572a1.188 1.188 0 0 0 1.68-1.68L14.08 12.4a1 1 0 0 0-.136-.117 7.8 7.8 0 0 1-1.66 1.66"/></symbol><use xlink:href="#sprite-search" width="19" height="19" y="174"/><view id="sprite-search-view" viewBox="0 174 19 19"/></svg>