<svg width="58" height="49" viewBox="0 0 58 49" fill="none" xmlns="http://www.w3.org/2000/svg">
<path d="M41.2815 7.69071H39.1249V2.57764C39.1249 1.81745 38.1933 1.48105 37.1854 1.23056C36.204 0.985906 34.8088 0.767468 33.0381 0.582519C29.435 0.202425 24.6494 0 19.5617 0C14.474 0 9.68843 0.20825 6.08534 0.582519C4.31607 0.767468 2.9209 0.985906 1.93944 1.23056C0.931575 1.48105 0 1.81308 0 2.57764V43.7573C0 45.1478 0.556436 46.4813 1.54689 47.4645C2.53734 48.4476 3.88068 49 5.2814 49H33.8376C35.2383 49 36.5817 48.4476 37.5721 47.4645C38.5626 46.4813 39.119 45.1478 39.119 43.7573V40.8229H41.2756C50.496 40.8229 58 33.3958 58 24.2575C58 15.1193 50.5019 7.69071 41.2815 7.69071ZM6.89075 1.68203C10.3647 1.35145 14.8657 1.16941 19.5617 1.16941C24.2577 1.16941 28.7601 1.35145 32.2341 1.68203C35.5599 1.9995 36.9918 2.35774 37.5933 2.57764C36.9918 2.79608 35.5599 3.16018 32.2341 3.47182C28.7601 3.8024 24.2592 3.98444 19.5617 3.98444C14.8642 3.98444 10.3647 3.8024 6.89075 3.47182C3.56494 3.15581 2.13309 2.79608 1.5316 2.57764C2.13309 2.35046 3.56494 1.99221 6.89075 1.67474V1.68203ZM37.9395 43.7501C37.9352 44.8288 37.5006 45.8618 36.7307 46.623C35.9608 47.3843 34.9184 47.8117 33.8317 47.8117H5.28433C4.19768 47.8117 3.15529 47.3843 2.3854 46.623C1.61551 45.8618 1.18085 44.8288 1.17658 43.7501V3.70193C1.41278 3.78494 1.66951 3.8563 1.93212 3.92037C2.91358 4.16503 4.30873 4.38347 6.078 4.56988C9.68108 4.94851 14.4681 5.1524 19.5544 5.1524C24.6407 5.1524 29.4291 4.94414 33.0322 4.56988C34.8015 4.38347 36.1966 4.16503 37.1781 3.92037C37.4407 3.8563 37.6974 3.78494 37.9336 3.70193L37.9395 43.7501ZM39.1234 13.896H41.28C42.6595 13.8798 44.0285 14.1355 45.3078 14.6483C46.587 15.1611 47.751 15.9208 48.7323 16.8834C49.7136 17.846 50.4927 18.9924 51.0245 20.2561C51.5562 21.5198 51.83 22.8757 51.83 24.2452C51.83 25.6147 51.5562 26.9705 51.0245 28.2342C50.4927 29.4979 49.7136 30.6443 48.7323 31.6069C47.751 32.5696 46.587 33.3293 45.3078 33.8421C44.0285 34.3549 42.6595 34.6106 41.28 34.5943H39.1234V13.896ZM41.28 39.636H39.1234V35.7696H41.28C42.8045 35.7696 44.314 35.4715 45.7225 34.8924C47.1309 34.3133 48.4107 33.4644 49.4886 32.3943C50.5666 31.3243 51.4217 30.0539 52.0051 28.6558C52.5885 27.2577 52.8888 25.7592 52.8888 24.2459C52.8888 22.7326 52.5885 21.2341 52.0051 19.836C51.4217 18.4378 50.5666 17.1675 49.4886 16.0974C48.4107 15.0273 47.1309 14.1785 45.7225 13.5994C44.314 13.0203 42.8045 12.7222 41.28 12.7222H39.1234V8.85575H41.28C49.8476 8.85575 56.8176 15.76 56.8176 24.2473C56.8176 32.7346 49.8491 39.6404 41.2815 39.6404L41.28 39.636Z" fill="#8AA3A0"/>
</svg>
