<svg width="39" height="49" viewBox="0 0 39 49" fill="none" xmlns="http://www.w3.org/2000/svg">
<path d="M38.8732 23.728C38.9879 23.3949 39.0206 23.0397 38.9685 22.6918C38.9164 22.3438 38.7811 22.0131 38.5737 21.7271C38.3663 21.4411 38.0928 21.208 37.7759 21.0471C37.4591 20.8863 37.1079 20.8022 36.7516 20.8021H36.5432C36.7939 19.626 36.9201 18.4274 36.9198 17.2256C36.9198 7.72923 29.105 0 19.4988 0C9.89257 0 2.07903 7.72551 2.07903 17.2256C2.07874 18.4274 2.20496 19.626 2.45564 20.8021H2.24098C1.88466 20.8022 1.53352 20.8863 1.21665 21.0471C0.899786 21.208 0.62631 21.4411 0.418915 21.7271C0.21152 22.0131 0.0761882 22.3438 0.0240927 22.6918C-0.0280028 23.0397 0.00466535 23.3949 0.119381 23.728C0.46551 24.7384 1.11536 25.6207 1.98236 26.2573C1.65028 26.2957 1.33112 26.407 1.0482 26.5829C0.765287 26.7588 0.525777 26.9949 0.347196 27.2739C0.168615 27.553 0.055481 27.8679 0.0160627 28.1956C-0.0233557 28.5234 0.0119497 28.8557 0.119381 29.1683C0.465035 30.1796 1.11602 31.0622 1.98487 31.6976C1.65247 31.7355 1.3329 31.8463 1.04955 32.022C0.766207 32.1978 0.526269 32.4338 0.34738 32.713C0.168491 32.9921 0.0551819 33.3072 0.0157255 33.6353C-0.0237309 33.9633 0.0116902 34.2958 0.119381 34.6086C0.464403 35.6209 1.11656 36.504 1.98739 37.1379C1.65476 37.1755 1.33489 37.2861 1.05124 37.4617C0.767589 37.6372 0.527365 37.8732 0.348207 38.1524C0.16905 38.4316 0.0555099 38.7469 0.0159094 39.075C-0.023691 39.4032 0.0116736 39.736 0.119381 40.0489C0.464848 41.0644 1.1183 41.9504 1.99115 42.5869C1.65815 42.6241 1.33785 42.7346 1.05375 42.91C0.769652 43.0855 0.528975 43.3216 0.349433 43.6009C0.169892 43.8803 0.0560291 44.1958 0.0162159 44.5243C-0.0235973 44.8527 0.0116662 45.1858 0.119381 45.4991C0.469254 46.5196 1.13432 47.4061 2.0211 48.0341C2.90787 48.662 3.97174 48.9999 5.06309 49H33.937C35.0284 48.9999 36.0923 48.662 36.979 48.0341C37.8658 47.4061 38.5309 46.5196 38.8808 45.4991C38.9891 45.1842 39.0242 44.8493 38.9834 44.5192C38.9427 44.1891 38.8272 43.8723 38.6454 43.5923C38.4637 43.3123 38.2204 43.0763 37.9336 42.9018C37.6468 42.7273 37.324 42.6188 36.9889 42.5844C37.869 41.9517 38.5297 41.0662 38.8808 40.0489C38.9885 39.7361 39.0238 39.4034 38.9843 39.0753C38.9448 38.7472 38.8313 38.432 38.6523 38.1529C38.4733 37.8737 38.2332 37.6376 37.9497 37.462C37.6662 37.2864 37.3465 37.1756 37.014 37.1379C37.8835 36.503 38.5351 35.6202 38.8808 34.6086C38.9885 34.2956 39.0238 33.9629 38.9842 33.6347C38.9446 33.3066 38.8311 32.9913 38.6519 32.7121C38.4728 32.4329 38.2325 32.1969 37.9489 32.0213C37.6652 31.8458 37.3454 31.7351 37.0127 31.6976C37.8832 31.0633 38.5353 30.1804 38.8808 29.1683C38.9885 28.8553 39.0238 28.5226 38.9842 28.1944C38.9446 27.8662 38.8311 27.551 38.6519 27.2718C38.4728 26.9926 38.2325 26.7566 37.9489 26.581C37.6652 26.4055 37.3454 26.2948 37.0127 26.2573C37.8804 25.6219 38.5298 24.7391 38.8732 23.728ZM19.4938 1.00379C28.5414 1.00379 35.9017 8.28069 35.9017 17.2256C35.9019 18.4288 35.7672 19.6282 35.5 20.8021H27.7166C28.2075 19.6717 28.4637 18.4555 28.4698 17.2256C28.4687 15.9063 28.1695 14.6038 27.594 13.413C27.0184 12.2223 26.1811 11.1733 25.1429 10.3424C24.1047 9.5115 22.8919 8.91969 21.5927 8.61006C20.2935 8.30042 18.9407 8.28076 17.6329 8.55251C16.325 8.82426 15.095 9.38058 14.0325 10.1809C12.97 10.9813 12.1017 12.0055 11.4909 13.179C10.8801 14.3525 10.5422 15.6457 10.5018 16.9645C10.4613 18.2832 10.7194 19.5942 11.2572 20.8021H3.47378C3.20655 19.6282 3.0718 18.4288 3.07203 17.2256C3.08709 8.28069 10.4474 1.00379 19.4938 1.00379ZM27.4668 17.2256C27.4588 18.4666 27.1651 19.6895 26.6081 20.8021H12.3883C11.8388 19.7414 11.5402 18.5716 11.515 17.3805C11.4899 16.1895 11.7388 15.0083 12.2431 13.926C12.7474 12.8437 13.4939 11.8885 14.4264 11.1322C15.3588 10.376 16.453 9.83848 17.6264 9.56016C18.7998 9.28184 20.0219 9.26998 21.2007 9.52546C22.3794 9.78094 23.484 10.2971 24.4314 11.0351C25.3788 11.7731 26.1442 12.7136 26.6699 13.7859C27.1957 14.8582 27.4682 16.0343 27.4668 17.2256ZM37.7484 44.0789C37.8637 44.2354 37.939 44.4171 37.9678 44.6085C37.9967 44.7999 37.9782 44.9953 37.9141 45.1781C37.632 46.0006 37.096 46.7151 36.3812 47.2212C35.6665 47.7273 34.8091 47.9997 33.9295 47.9999H5.05555C4.17595 47.9997 3.31854 47.7273 2.60383 47.2212C1.88912 46.7151 1.35304 46.0006 1.07094 45.1781C1.00817 44.9956 0.990343 44.8009 1.0189 44.6102C1.04746 44.4195 1.1216 44.2382 1.23519 44.0814C1.34879 43.9246 1.49857 43.7967 1.67216 43.7083C1.84574 43.62 2.03814 43.5737 2.23344 43.5733H36.7478C36.9436 43.5714 37.1369 43.6164 37.3112 43.7045C37.4855 43.7926 37.6355 43.9211 37.7484 44.0789ZM37.7484 38.6262C37.8636 38.7828 37.9388 38.9644 37.9677 39.1558C37.9965 39.3472 37.9781 39.5426 37.9141 39.7254C37.642 40.5228 37.1333 41.221 36.4541 41.7293C35.7749 42.2376 34.9565 42.5325 34.1053 42.5757H4.75552C3.92752 42.5059 3.13815 42.199 2.4843 41.6927C1.83045 41.1864 1.34056 40.5027 1.07471 39.7254C1.01194 39.5429 0.994082 39.3482 1.02264 39.1575C1.0512 38.9668 1.12537 38.7855 1.23896 38.6287C1.35256 38.4719 1.50234 38.344 1.67593 38.2556C1.84951 38.1673 2.04191 38.121 2.23721 38.1206H36.7516C36.9469 38.1199 37.1395 38.1657 37.313 38.2542C37.4866 38.3426 37.6359 38.4711 37.7484 38.6287V38.6262ZM37.7484 33.1859C37.8636 33.3424 37.9388 33.5241 37.9677 33.7155C37.9965 33.9069 37.9781 34.1023 37.9141 34.2851C37.653 35.0613 37.1659 35.7443 36.5137 36.2486C35.8615 36.7529 35.073 37.0562 34.2471 37.1205H4.75175C3.9242 37.0576 3.13386 36.755 2.47976 36.2506C1.82567 35.7462 1.33691 35.0625 1.07471 34.2851C1.0107 34.1022 0.991884 33.9068 1.01985 33.7153C1.04782 33.5238 1.12176 33.3416 1.2355 33.184C1.34924 33.0263 1.49948 32.8978 1.67372 32.8091C1.84796 32.7204 2.04116 32.6742 2.23721 32.6741H36.7516C36.9475 32.6741 37.1404 32.7209 37.314 32.8104C37.4876 32.9 37.6366 33.0296 37.7484 33.1884V33.1859ZM37.7484 27.7456C37.8636 27.9021 37.9388 28.0838 37.9677 28.2752C37.9965 28.4665 37.9781 28.6619 37.9141 28.8448C37.6507 29.629 37.1563 30.3177 36.4941 30.8228C35.8319 31.3279 35.032 31.6265 34.1969 31.6802H4.66514C3.85345 31.5996 3.08267 31.2891 2.44565 30.786C1.80863 30.283 1.33254 29.6088 1.07471 28.8448C1.0107 28.6619 0.991884 28.4665 1.01985 28.275C1.04782 28.0835 1.12176 27.9013 1.2355 27.7437C1.34924 27.586 1.49948 27.4575 1.67372 27.3688C1.84796 27.2801 2.04116 27.2338 2.23721 27.2338H36.7516C36.9475 27.2338 37.1404 27.2806 37.314 27.3701C37.4876 27.4597 37.6366 27.5893 37.7484 27.7481V27.7456ZM34.2233 26.2399H4.61239C3.81049 26.1487 3.05163 25.8334 2.42496 25.3311C1.7983 24.8289 1.32987 24.1605 1.07471 23.4045C1.01194 23.2219 0.994082 23.0273 1.02264 22.8365C1.0512 22.6458 1.12537 22.4646 1.23896 22.3077C1.35256 22.1509 1.50234 22.0231 1.67593 21.9347C1.84951 21.8464 2.04191 21.8001 2.23721 21.7997H36.7516C36.9469 21.8001 37.1393 21.8464 37.3129 21.9347C37.4865 22.0231 37.6363 22.1509 37.7499 22.3077C37.8635 22.4646 37.9376 22.6458 37.9662 22.8365C37.9947 23.0273 37.9769 23.2219 37.9141 23.4045C37.6524 24.185 37.162 24.8712 36.505 25.3764C35.848 25.8816 35.0539 26.183 34.2233 26.2424V26.2399Z" fill="#8AA3A0"/>
</svg>
