<svg width="81" height="49" viewBox="0 0 81 49" fill="none" xmlns="http://www.w3.org/2000/svg">
<path d="M75.8492 2.9978C73.8863 2.4068 71.0937 1.87694 67.5512 1.42656C60.3208 0.505409 50.7177 0 40.5062 0C30.2946 0 20.6936 0.507447 13.4611 1.42656C9.91652 1.87694 7.12391 2.4068 5.16109 2.9978C3.57117 3.47672 1.75994 4.18797 1.59398 5.48206C0.696572 7.65247 0 11.2107 0 13.6725C0 21.916 4.24317 29.65 11.9469 35.452C13.7408 36.7975 15.6439 37.9924 17.6366 39.0245C17.945 41.1936 18.9377 43.2093 20.4716 44.7812C22.0056 46.3532 24.0017 47.4002 26.1723 47.7713C35.6627 49.3992 45.3625 49.4096 54.8564 47.8019C57.0344 47.438 59.0373 46.3881 60.5703 44.8069C62.1032 43.2256 63.0852 41.1965 63.3715 39.0184C65.3612 37.9888 67.2609 36.7959 69.051 35.452C76.7568 29.65 81 21.916 81 13.6725C81 10.8194 80.3853 7.69729 79.4019 5.46982C79.24 4.18388 77.435 3.48487 75.8492 2.9978ZM14.4117 2.96519C21.4824 2.11333 30.7515 1.64257 40.5082 1.64257C50.2649 1.64257 59.534 2.11129 66.6046 2.96519C75.8799 4.08605 77.5006 5.39442 77.7464 5.67361C77.5006 5.95281 75.8799 7.26118 66.6046 8.38204C59.534 9.23594 50.267 9.7067 40.5082 9.7067C30.7494 9.7067 21.4824 9.23594 14.4117 8.38204C5.13649 7.26118 3.51586 5.95281 3.27204 5.67361C3.51586 5.39442 5.13649 4.09624 14.4117 2.96519ZM54.5921 46.1817C45.2804 47.756 35.7674 47.7457 26.4591 46.1512C24.8319 45.8725 23.3171 45.1417 22.0896 44.0434C20.862 42.945 19.9718 41.5237 19.5216 39.9436C25.787 42.8273 32.9929 44.37 40.5082 44.37C48.0235 44.37 55.2601 42.8232 61.5214 39.9314C61.0876 41.5229 60.2043 42.9574 58.9763 44.0651C57.7483 45.1729 56.2268 45.9074 54.5921 46.1817ZM40.5082 42.7172C19.0873 42.7172 1.65955 29.6744 1.65955 13.6644C1.65955 11.8302 2.09598 9.26447 2.69835 7.31213C3.4721 7.75946 4.30239 8.10214 5.16724 8.33109C7.13006 8.92414 9.92267 9.45196 13.4672 9.90438C20.6956 10.8255 30.2987 11.3309 40.5123 11.3309C50.7259 11.3309 60.3269 10.8255 67.5574 9.90438C71.1019 9.45196 73.8925 8.92414 75.8553 8.33109C76.724 8.07024 77.6583 7.73805 78.357 7.28155C79.0148 9.34289 79.3547 11.4915 79.365 13.6542C79.3589 29.6928 61.9312 42.7254 40.5082 42.7254V42.7172Z" fill="#8AA3A0"/>
</svg>
