<svg width="53" height="49" viewBox="0 0 53 49" fill="none" xmlns="http://www.w3.org/2000/svg">
<path d="M47.3361 29.745C42.4905 26.0784 43.1928 22.0142 44.0748 19.8714C44.1353 19.7489 44.1665 19.6142 44.166 19.4778C44.166 18.4424 42.4838 17.9781 40.8149 17.9781C39.1461 17.9781 37.4639 18.4424 37.4639 19.4778C37.4636 19.6108 37.4934 19.7421 37.551 19.862C38.2507 21.5432 38.8539 24.4386 36.6891 27.3914C35.1329 24.2145 32.566 21.179 29.3798 18.7679C25.6507 15.9473 23.5436 12.5742 23.1146 8.74486C22.8711 6.42488 23.2158 4.08113 24.1173 1.92802C24.1587 1.82955 24.1801 1.7239 24.1803 1.61714C24.1803 0.0773874 19.9834 0 19.1429 0C18.3025 0 14.1043 0.0773874 14.1043 1.61714C14.1044 1.73878 14.1324 1.85879 14.1861 1.96806C15.0861 4.11505 15.4326 6.45194 15.1941 8.7662C14.7705 12.5809 12.6647 15.9473 8.93563 18.7733C2.81257 23.4072 -0.581392 30.0119 0.0821179 36.0108C0.606224 40.7488 3.63291 44.6169 8.60589 46.9052V47.9886C8.6066 48.2544 8.71306 48.5091 8.90199 48.6969C9.09091 48.8847 9.34689 48.9903 9.61389 48.9907H28.723C28.8564 48.9908 28.9886 48.9646 29.1117 48.9135C29.2349 48.8624 29.3466 48.7874 29.4404 48.6929C29.5342 48.5985 29.6082 48.4864 29.6581 48.3632C29.708 48.24 29.7327 48.1081 29.731 47.9753L29.7162 46.9079C30.3245 46.6316 30.9158 46.3198 31.4869 45.9739C32.2538 46.6404 33.1111 47.196 34.0337 47.6244V48.1714C34.0337 48.3912 34.1214 48.6019 34.2775 48.7573C34.4336 48.9127 34.6454 49 34.8661 49H46.804C46.9142 49.0002 47.0234 48.9785 47.1252 48.9363C47.227 48.894 47.3193 48.8321 47.3968 48.754C47.4742 48.6758 47.5353 48.5832 47.5765 48.4813C47.6176 48.3795 47.638 48.2705 47.6364 48.1607L47.6296 47.627C50.7314 46.1593 52.6174 43.7096 52.9484 40.7155C53.3667 36.8781 51.218 32.6818 47.3361 29.745ZM40.8163 19.0548C41.9758 19.0548 42.7398 19.3003 43.0105 19.4778C42.7425 19.6552 41.9758 19.9007 40.8163 19.9007C39.6568 19.9007 38.8928 19.6552 38.622 19.4778C38.8928 19.3003 39.6568 19.0548 40.8163 19.0548ZM19.1429 1.07675C21.1308 1.07675 22.4404 1.38365 22.935 1.61714C22.4404 1.85064 21.1308 2.15085 19.1429 2.15085C17.1551 2.15085 15.8455 1.84397 15.3495 1.61714C15.8455 1.38365 17.1538 1.07675 19.1429 1.07675ZM29.2229 45.9392C29.0453 46.0199 28.8952 46.1503 28.7907 46.3144C28.6862 46.4786 28.6319 46.6695 28.6345 46.8638L28.6479 47.9086H9.68759V46.8518C9.68694 46.6597 9.63109 46.4718 9.52658 46.3103C9.42206 46.1488 9.27327 46.0205 9.09781 45.9405C6.68505 44.8371 4.77496 43.368 3.41711 41.5761C2.15666 39.9209 1.37554 37.9538 1.15848 35.8881C0.536526 30.2627 3.76694 24.0317 9.58974 19.6259C17.639 13.5349 16.7221 6.29111 15.6578 2.85668C16.9446 3.20626 18.6403 3.23429 19.1429 3.23429C19.6456 3.23429 21.3479 3.20626 22.6361 2.85534C21.5731 6.31112 20.6885 13.5429 28.727 19.6259C31.881 22.0116 34.4908 25.1605 35.9291 28.3067C35.435 28.8308 34.8969 29.312 34.3206 29.745C30.4333 32.6804 28.2887 36.8781 28.7109 40.6968C28.8897 42.3599 29.5866 43.9256 30.7041 45.1746C30.224 45.4549 29.7296 45.7101 29.2229 45.9392ZM51.8761 40.578C51.5785 43.2666 49.9044 45.3814 47.0345 46.697C46.8877 46.7638 46.7635 46.8716 46.6771 47.0073C46.5907 47.1431 46.5458 47.3009 46.5479 47.4616V47.9086H35.1114V47.4509C35.1107 47.2924 35.0645 47.1373 34.9783 47.004C34.8922 46.8707 34.7695 46.7647 34.6248 46.6984C31.7523 45.3841 30.0781 43.2679 29.7806 40.578C29.3999 37.1343 31.3891 33.3116 34.9693 30.6017C37.4987 28.6883 38.9303 26.4414 39.2239 23.9303C39.3403 22.8731 39.2617 21.8037 38.992 20.7747C40.1923 21.0549 41.4416 21.0549 42.6419 20.7747C42.3775 21.8015 42.3025 22.8675 42.4208 23.9209C42.7183 26.4454 44.1513 28.6963 46.6806 30.6096C50.2623 33.3116 52.2501 37.1343 51.8708 40.578H51.8761Z" fill="#8AA3A0"/>
</svg>
