<svg width="208" height="247" viewBox="0 0 208 247" fill="none" xmlns="http://www.w3.org/2000/svg">
<g opacity="0.3">
<path fill-rule="evenodd" clip-rule="evenodd" d="M-42.0621 181.359C-47.6244 189.574 -53.0243 197.883 -58.2617 206.284L-66.967 203.782C-59.8123 183.701 -49.296 164.877 -39.6442 145.015C-24.4272 113.734 -6.37313 81.3444 21.9558 61.1637C50.2847 40.9831 70.4708 17.2587 106.415 7.54584e-06C78.1955 25.5802 53.7388 58.6755 29.2513 87.9294C4.08483 117.957 -20.1055 148.873 -42.0621 181.359Z" fill="#8AA3A0"/>
<path fill-rule="evenodd" clip-rule="evenodd" d="M-49.677 208.82C-13.8131 183.836 24.167 162.033 63.8294 143.663C109.143 122.649 160.586 148.155 207.457 165.443C162.416 161.866 116.095 147.863 73.4401 162.709C33.777 176.733 -5.15514 192.744 -43.2087 210.679L-49.677 208.82Z" fill="#8AA3A0"/>
<path fill-rule="evenodd" clip-rule="evenodd" d="M-39.2715 211.81L-40.2558 211.528C-19.8796 202.158 1.53291 195.229 23.5362 190.885C50.3231 185.605 78.4188 198.355 103.541 209.075C133.579 221.858 165.961 227.013 192.106 246.55C163.675 234.727 132.158 227.524 101.58 223.413C68.364 218.945 34.4022 222.177 0.699146 223.352L-39.2715 211.81Z" fill="#8AA3A0"/>
<path fill-rule="evenodd" clip-rule="evenodd" d="M-56.976 206.723C-29.676 167.539 1.56711 131.256 36.2642 98.4396C76.4817 60.4376 145.344 74.1117 199.92 83.3207C152.693 87.8319 103.884 85.2334 65.4625 112.987C23.8647 142.983 -18.2439 171.241 -53.4516 207.749L-56.976 206.723Z" fill="#8AA3A0"/>
</g>
</svg>
